<?xml version="1.0" standalone="no"?>
<!DOCTYPE svg PUBLIC "-//W3C//DTD SVG 20010904//EN"
 "http://www.w3.org/TR/2001/REC-SVG-20010904/DTD/svg10.dtd">
<svg version="1.0" xmlns="http://www.w3.org/2000/svg"
 width="500.000000pt" height="500.000000pt" viewBox="0 0 500.000000 500.000000"
 preserveAspectRatio="xMidYMid meet">
<metadata>
Created by potrace 1.14, written by Peter Selinger 2001-2017
</metadata>
<g transform="translate(0.000000,500.000000) scale(0.100000,-0.100000)"
fill="#000000" stroke="none">
<path d="M2893 4946 c-259 -84 -441 -313 -534 -676 -21 -82 -42 -195 -41 -223
1 -29 -14 -11 -33 40 -75 197 -209 405 -339 523 -49 45 -138 109 -151 110 -5
0 -22 6 -37 14 -26 14 -91 37 -118 43 -40 8 -162 15 -183 9 -53 -13 -154 -180
-186 -309 -23 -89 -25 -251 -4 -362 20 -110 72 -262 130 -381 26 -54 49 -102
51 -107 2 -4 -32 15 -75 42 -170 105 -339 174 -513 207 -62 11 -213 11 -270
-2 -91 -19 -162 -51 -237 -106 -57 -41 -56 -39 -56 -153 -1 -190 87 -371 259
-534 72 -68 204 -171 220 -171 3 0 18 -9 33 -19 15 -11 63 -38 107 -60 75 -38
77 -40 44 -41 -19 -1 -44 -3 -55 -5 -11 -2 -49 -6 -85 -10 -65 -7 -74 -8 -140
-20 -124 -22 -308 -94 -405 -159 -75 -49 -165 -140 -201 -202 -40 -68 -76
-173 -68 -198 9 -28 60 -102 104 -149 102 -112 265 -189 460 -219 136 -22 357
-14 514 18 25 5 19 -2 -40 -52 -365 -309 -520 -665 -413 -950 22 -59 26 -62
114 -92 284 -98 616 18 933 327 46 45 81 73 78 63 -14 -42 -37 -138 -42 -171
-3 -20 -10 -63 -16 -96 -16 -93 -12 -308 7 -400 39 -187 135 -338 268 -422
l39 -25 67 17 c135 34 270 127 363 250 46 61 121 185 112 185 -2 0 2 10 10 23
32 51 99 292 112 405 4 35 10 60 13 55 4 -4 25 -48 46 -98 181 -422 450 -655
757 -655 54 0 63 3 88 30 216 232 224 622 20 1032 -28 55 -50 102 -50 104 0 2
26 -15 59 -36 144 -96 350 -182 516 -215 67 -14 222 -13 290 1 82 17 194 70
249 117 l38 33 1 79 c1 101 -8 159 -37 240 -39 107 -103 203 -200 301 -105
104 -207 178 -356 258 -104 55 -105 56 -65 57 69 3 180 15 225 24 14 3 49 10
79 16 76 15 239 73 308 110 66 37 156 103 194 145 67 74 136 204 143 274 7 61
-131 220 -248 285 -68 38 -172 80 -218 89 -13 2 -52 9 -88 16 -116 21 -308 17
-477 -10 -32 -6 -62 -10 -67 -10 -5 0 16 19 45 42 64 51 198 184 236 236 16
20 30 39 34 42 15 13 71 103 107 173 52 99 85 228 84 330 -1 42 -3 81 -6 86
-3 4 -8 22 -11 40 -9 50 -36 111 -54 120 -66 35 -215 66 -301 63 -229 -9 -485
-141 -712 -366 -36 -36 -68 -66 -70 -66 -2 0 6 41 18 90 113 458 23 837 -235
1002 -25 15 -50 28 -55 28 -6 -1 -43 -11 -83 -24z"/>
</g>
</svg>
