<?xml version="1.0" standalone="no"?>
<!DOCTYPE svg PUBLIC "-//W3C//DTD SVG 20010904//EN"
 "http://www.w3.org/TR/2001/REC-SVG-20010904/DTD/svg10.dtd">
<svg version="1.0" xmlns="http://www.w3.org/2000/svg"
 width="500.000000pt" height="500.000000pt" viewBox="0 0 500.000000 500.000000"
 preserveAspectRatio="xMidYMid meet">
<metadata>
Created by potrace 1.14, written by Peter Selinger 2001-2017
</metadata>
<g transform="translate(0.000000,500.000000) scale(0.100000,-0.100000)"
fill="#000000" stroke="none">
<path d="M2805 4779 c-254 -35 -471 -330 -630 -854 -49 -159 -63 -217 -109
-447 l-43 -207 -17 57 c-55 176 -200 526 -283 682 -147 276 -283 409 -475 464
-70 20 -118 20 -193 1 -82 -22 -147 -60 -226 -133 -217 -201 -199 -479 55
-852 28 -41 53 -77 56 -80 3 -3 21 -25 40 -50 52 -69 205 -235 304 -330 49
-47 98 -94 110 -105 12 -11 51 -46 89 -78 37 -31 66 -57 64 -57 -2 0 -29 9
-60 19 -32 11 -57 18 -57 16 0 -3 -17 2 -37 10 -84 32 -402 104 -543 121 -82
11 -362 11 -415 1 -225 -43 -339 -155 -352 -345 -13 -186 72 -325 249 -404 57
-26 139 -53 193 -62 17 -3 41 -8 54 -11 149 -29 509 -24 761 11 58 8 123 17
145 20 22 3 46 7 53 9 21 7 13 -5 -10 -15 -13 -6 -43 -24 -68 -40 -25 -16 -52
-33 -60 -37 -17 -8 -160 -101 -240 -157 -217 -152 -454 -370 -549 -506 -29
-41 -68 -105 -86 -141 -29 -59 -36 -80 -52 -139 -10 -38 -6 -171 7 -211 21
-67 85 -163 143 -215 203 -184 462 -138 729 130 141 140 304 360 433 584 26
45 49 81 51 80 1 -2 -15 -80 -36 -174 -21 -95 -41 -194 -44 -220 -7 -48 -11
-81 -21 -139 -7 -45 -18 -212 -19 -285 -1 -315 88 -527 257 -610 71 -34 116
-44 202 -44 133 0 244 32 351 99 197 126 253 403 175 870 -12 66 -25 135 -30
153 -5 18 -10 35 -10 37 0 3 -2 18 -5 33 -4 15 -8 36 -10 47 -8 43 -59 221
-67 238 -6 9 -6 17 -2 17 4 0 28 -33 53 -72 48 -77 159 -246 172 -263 5 -5 45
-57 90 -115 89 -114 210 -240 300 -312 64 -51 209 -129 293 -158 58 -20 160
-21 205 -3 31 13 178 122 207 154 146 161 64 417 -234 729 -44 47 -80 86 -79
88 2 1 32 -11 68 -27 216 -98 459 -129 603 -77 165 59 249 134 314 278 27 58
32 79 45 159 11 70 -31 181 -92 245 -116 122 -385 235 -671 280 -18 3 -42 7
-53 9 -11 3 -46 7 -77 11 -31 3 -64 8 -75 10 -10 2 -59 6 -110 10 -50 3 -107
8 -126 9 -19 2 -104 5 -187 6 -84 1 -153 3 -153 4 0 1 21 10 48 20 185 69 488
215 644 311 507 312 641 614 392 884 -69 74 -138 118 -239 152 -110 38 -238
34 -367 -10 -116 -40 -251 -112 -368 -196 -122 -88 -179 -136 -306 -256 -37
-36 -61 -54 -53 -40 198 316 205 327 283 480 123 242 176 418 173 575 -3 113
-24 175 -80 233 -87 90 -263 149 -392 131z m-185 -142 c0 -2 -19 -21 -42 -42
l-43 -40 40 43 c36 39 45 47 45 39z m-80 -90 c0 -2 -10 -12 -22 -23 l-23 -19
19 23 c18 21 26 27 26 19z m-1611 -207 c-117 -103 -166 -213 -156 -354 12
-184 105 -374 306 -626 79 -100 375 -401 476 -485 33 -28 67 -57 75 -65 8 -9
35 -31 60 -50 60 -45 70 -55 40 -40 -55 28 -289 230 -443 383 -456 453 -635
822 -520 1069 32 69 90 134 163 186 64 44 64 39 -1 -18z m-650 -1503 c-100
-86 -134 -234 -88 -383 18 -59 30 -77 87 -133 47 -47 56 -59 33 -45 -67 39
-118 92 -146 156 -25 54 -29 76 -29 148 0 122 31 188 118 251 46 34 62 38 25
6z m1310 -711 c-2 -2 -15 -9 -29 -15 -24 -11 -24 -11 -6 3 16 13 49 24 35 12z
m-120 -69 c-2 -1 -13 -9 -24 -17 -19 -14 -19 -14 -6 3 7 9 18 17 24 17 6 0 8
-1 6 -3z m-49 -31 c0 -2 -22 -18 -50 -35 -27 -17 -50 -29 -50 -26 0 4 90 64
98 65 1 0 2 -2 2 -4z m-115 -75 c-6 -4 -44 -32 -85 -62 -41 -29 -77 -56 -80
-59 -3 -3 -41 -33 -85 -67 -105 -79 -276 -249 -347 -343 -63 -84 -120 -191
-141 -265 -17 -60 -14 -173 6 -230 28 -77 96 -170 161 -217 47 -34 40 -37 -12
-4 -91 58 -180 175 -198 261 -2 11 -4 47 -5 80 -2 185 148 409 446 662 90 77
400 300 340 244z m2115 -217 c0 -2 -9 0 -20 6 -11 6 -20 13 -20 16 0 2 9 0 20
-6 11 -6 20 -13 20 -16z m50 -30 c0 -2 -9 0 -20 6 -11 6 -20 13 -20 16 0 2 9
0 20 -6 11 -6 20 -13 20 -16z m-1686 -1020 c9 -190 39 -319 97 -419 35 -61 44
-71 92 -112 50 -43 37 -42 -23 2 -56 41 -102 109 -131 192 -24 66 -26 74 -39
163 -9 62 -14 308 -6 299 2 -2 7 -59 10 -125z"/>
</g>
</svg>
